<?xml version="1.0" encoding="UTF-8" standalone="no"?>
<!DOCTYPE svg PUBLIC "-//W3C//DTD SVG 1.1//EN"
 "http://www.w3.org/Graphics/SVG/1.1/DTD/svg11.dtd">
<!-- Generated by graphviz version 2.40.1 (20161225.0304)
 -->
<!-- Title: G Pages: 1 -->
<svg width="366pt" height="302pt"
 viewBox="0.00 0.00 365.50 302.00" xmlns="http://www.w3.org/2000/svg" xmlns:xlink="http://www.w3.org/1999/xlink">
<g id="graph0" class="graph" transform="scale(1 1) rotate(0) translate(4 298)">
<title>G</title>
<polygon fill="#ffffff" stroke="transparent" points="-4,4 -4,-298 361.5,-298 361.5,4 -4,4"/>
<!-- A0 -->
<g id="node1" class="node">
<title>A0</title>
<polygon fill="none" stroke="#000000" points="0,-262 0,-294 54,-294 54,-262 0,-262"/>
<text text-anchor="start" x="9.9125" y="-275" font-family="Helvetica,sans-Serif" font-size="10.00" fill="#000000">+IWash</text>
<polygon fill="none" stroke="#000000" points="0,-182 0,-262 54,-262 54,-182 0,-182"/>
<text text-anchor="start" x="17.288" y="-243" font-family="Helvetica,sans-Serif" font-size="10.00" fill="#000000">Fill()</text>
<text text-anchor="start" x="9.5035" y="-231" font-family="Helvetica,sans-Serif" font-size="10.00" fill="#000000"> Rinse()</text>
<text text-anchor="start" x="12.2775" y="-207" font-family="Helvetica,sans-Serif" font-size="10.00" fill="#000000">Soak()</text>
<text text-anchor="start" x="12.2785" y="-195" font-family="Helvetica,sans-Serif" font-size="10.00" fill="#000000"> Spin()</text>
</g>
<!-- A3 -->
<g id="node4" class="node">
<title>A3</title>
<polygon fill="none" stroke="#000000" points="40,-100 40,-132 113,-132 113,-100 40,-100"/>
<text text-anchor="start" x="49.684" y="-113" font-family="Helvetica,sans-Serif" font-size="10.00" fill="#000000">+WashLoad</text>
<polygon fill="none" stroke="#000000" points="40,-80 40,-100 113,-100 113,-80 40,-80"/>
<polygon fill="none" stroke="#000000" points="40,0 40,-80 113,-80 113,0 40,0"/>
<text text-anchor="start" x="63.8685" y="-61" font-family="Helvetica,sans-Serif" font-size="10.00" fill="#000000">+Fill()</text>
<text text-anchor="start" x="56.084" y="-49" font-family="Helvetica,sans-Serif" font-size="10.00" fill="#000000"> +Rinse()</text>
<text text-anchor="start" x="58.858" y="-25" font-family="Helvetica,sans-Serif" font-size="10.00" fill="#000000">+Soak()</text>
<text text-anchor="start" x="58.859" y="-13" font-family="Helvetica,sans-Serif" font-size="10.00" fill="#000000"> +Spin()</text>
</g>
<!-- A0&#45;&gt;A3 -->
<g id="edge3" class="edge">
<title>A0&#45;&gt;A3</title>
<path fill="none" stroke="#000000" d="M45.8479,-171.8401C49.5688,-158.7789 53.4737,-145.0719 57.1933,-132.0155"/>
<polygon fill="none" stroke="#000000" points="42.4183,-171.1045 43.0444,-181.6808 49.1504,-173.0224 42.4183,-171.1045"/>
</g>
<!-- A1 -->
<g id="node2" class="node">
<title>A1</title>
<polygon fill="none" stroke="#000000" points="190,-250 190,-282 253,-282 253,-250 190,-250"/>
<text text-anchor="start" x="209.417" y="-263" font-family="Helvetica,sans-Serif" font-size="10.00" fill="#000000">+IDry</text>
<polygon fill="none" stroke="#000000" points="190,-194 190,-250 253,-250 253,-194 190,-194"/>
<text text-anchor="start" x="202.34" y="-231" font-family="Helvetica,sans-Serif" font-size="10.00" fill="#000000">AirFluff()</text>
<text text-anchor="start" x="199.839" y="-207" font-family="Helvetica,sans-Serif" font-size="10.00" fill="#000000">HeatDry()</text>
</g>
<!-- A4 -->
<g id="node5" class="node">
<title>A4</title>
<polygon fill="none" stroke="#000000" points="134,-88 134,-120 203,-120 203,-88 134,-88"/>
<text text-anchor="start" x="146.6885" y="-101" font-family="Helvetica,sans-Serif" font-size="10.00" fill="#000000">+DryLoad</text>
<polygon fill="none" stroke="#000000" points="134,-68 134,-88 203,-88 203,-68 134,-68"/>
<polygon fill="none" stroke="#000000" points="134,-12 134,-68 203,-68 203,-12 134,-12"/>
<text text-anchor="start" x="146.4205" y="-49" font-family="Helvetica,sans-Serif" font-size="10.00" fill="#000000">+AirFluff()</text>
<text text-anchor="start" x="143.9195" y="-25" font-family="Helvetica,sans-Serif" font-size="10.00" fill="#000000">+HeatDry()</text>
</g>
<!-- A1&#45;&gt;A4 -->
<g id="edge4" class="edge">
<title>A1&#45;&gt;A4</title>
<path fill="none" stroke="#000000" d="M204.3563,-183.9864C198.1005,-163.6847 190.9902,-140.6097 184.7269,-120.2835"/>
<polygon fill="none" stroke="#000000" points="201.0615,-185.1798 207.3512,-193.7057 207.7512,-183.1184 201.0615,-185.1798"/>
</g>
<!-- A2 -->
<g id="node3" class="node">
<title>A2</title>
<polygon fill="none" stroke="#000000" points="73,-254 73,-286 172,-286 172,-254 73,-254"/>
<text text-anchor="start" x="103.7385" y="-267" font-family="Helvetica,sans-Serif" font-size="10.00" fill="#000000">+A:Load</text>
<polygon fill="none" stroke="#000000" points="73,-222 73,-254 172,-254 172,-222 73,-222"/>
<text text-anchor="start" x="82.628" y="-235" font-family="Helvetica,sans-Serif" font-size="10.00" fill="#000000">+loadname:string </text>
<polygon fill="none" stroke="#000000" points="73,-190 73,-222 172,-222 172,-190 73,-190"/>
<text text-anchor="start" x="96.2505" y="-203" font-family="Helvetica,sans-Serif" font-size="10.00" fill="#000000"> +SetTime()</text>
</g>
<!-- A2&#45;&gt;A3 -->
<g id="edge1" class="edge">
<title>A2&#45;&gt;A3</title>
<path fill="none" stroke="#000000" stroke-dasharray="5,2" d="M106.4369,-179.8074C102.3527,-164.5361 97.9179,-147.9538 93.7295,-132.2931"/>
<polygon fill="none" stroke="#000000" points="103.0992,-180.8745 109.064,-189.6307 109.8615,-179.0659 103.0992,-180.8745"/>
</g>
<!-- A2&#45;&gt;A4 -->
<g id="edge2" class="edge">
<title>A2&#45;&gt;A4</title>
<path fill="none" stroke="#000000" stroke-dasharray="5,2" d="M137.5794,-179.7465C142.7441,-160.4349 148.468,-139.0328 153.5444,-120.0513"/>
<polygon fill="none" stroke="#000000" points="134.1385,-179.0659 134.936,-189.6307 140.9008,-180.8745 134.1385,-179.0659"/>
</g>
<!-- A5 -->
<g id="node6" class="node">
<title>A5</title>
<polygon fill="none" stroke="#000000" points="271,-262 271,-294 358,-294 358,-262 271,-262"/>
<text text-anchor="start" x="292.6885" y="-275" font-family="Helvetica,sans-Serif" font-size="10.00" fill="#000000">+Machine</text>
<polygon fill="none" stroke="#000000" points="271,-182 271,-262 358,-262 358,-182 271,-182"/>
<text text-anchor="start" x="282.9665" y="-243" font-family="Helvetica,sans-Serif" font-size="10.00" fill="#000000"> +model:string</text>
<text text-anchor="start" x="281.017" y="-219" font-family="Helvetica,sans-Serif" font-size="10.00" fill="#000000">+available:bool</text>
<text text-anchor="start" x="280.742" y="-195" font-family="Helvetica,sans-Serif" font-size="10.00" fill="#000000">+location:string</text>
</g>
</g>
</svg>
