<?xml version="1.0" encoding="UTF-8" standalone="no"?>
<!DOCTYPE svg PUBLIC "-//W3C//DTD SVG 1.1//EN"
 "http://www.w3.org/Graphics/SVG/1.1/DTD/svg11.dtd">
<!-- Generated by graphviz version 2.40.1 (20161225.0304)
 -->
<!-- Title: G Pages: 1 -->
<svg width="273pt" height="282pt"
 viewBox="0.00 0.00 272.50 282.00" xmlns="http://www.w3.org/2000/svg" xmlns:xlink="http://www.w3.org/1999/xlink">
<g id="graph0" class="graph" transform="scale(1 1) rotate(0) translate(4 278)">
<title>G</title>
<polygon fill="#ffffff" stroke="transparent" points="-4,4 -4,-278 268.5,-278 268.5,4 -4,4"/>
<!-- A0 -->
<g id="node1" class="node">
<title>A0</title>
<polygon fill="none" stroke="#000000" points="0,-242 0,-274 60,-274 60,-242 0,-242"/>
<text text-anchor="start" x="12.9125" y="-255" font-family="Helvetica,sans-Serif" font-size="10.00" fill="#000000">+IWash</text>
<polygon fill="none" stroke="#000000" points="0,-162 0,-242 60,-242 60,-162 0,-162"/>
<text text-anchor="start" x="17.3685" y="-223" font-family="Helvetica,sans-Serif" font-size="10.00" fill="#000000">+Fill()</text>
<text text-anchor="start" x="9.584" y="-211" font-family="Helvetica,sans-Serif" font-size="10.00" fill="#000000"> +Rinse()</text>
<text text-anchor="start" x="12.358" y="-187" font-family="Helvetica,sans-Serif" font-size="10.00" fill="#000000">+Soak()</text>
<text text-anchor="start" x="12.359" y="-175" font-family="Helvetica,sans-Serif" font-size="10.00" fill="#000000"> +Spin()</text>
</g>
<!-- A3 -->
<g id="node4" class="node">
<title>A3</title>
<polygon fill="none" stroke="#000000" points="45,-80 45,-112 118,-112 118,-80 45,-80"/>
<text text-anchor="start" x="54.684" y="-93" font-family="Helvetica,sans-Serif" font-size="10.00" fill="#000000">+WashLoad</text>
<polygon fill="none" stroke="#000000" points="45,0 45,-80 118,-80 118,0 45,0"/>
<text text-anchor="start" x="68.8685" y="-61" font-family="Helvetica,sans-Serif" font-size="10.00" fill="#000000">+Fill()</text>
<text text-anchor="start" x="61.084" y="-49" font-family="Helvetica,sans-Serif" font-size="10.00" fill="#000000"> +Rinse()</text>
<text text-anchor="start" x="63.858" y="-25" font-family="Helvetica,sans-Serif" font-size="10.00" fill="#000000">+Soak()</text>
<text text-anchor="start" x="63.859" y="-13" font-family="Helvetica,sans-Serif" font-size="10.00" fill="#000000"> +Spin()</text>
</g>
<!-- A0&#45;&gt;A3 -->
<g id="edge3" class="edge">
<title>A0&#45;&gt;A3</title>
<path fill="none" stroke="#000000" d="M50.7063,-152.2271C54.8957,-138.9197 59.2641,-125.0434 63.3371,-112.1057"/>
<polygon fill="none" stroke="#000000" points="47.3586,-151.2054 47.6942,-161.7949 54.0356,-153.3074 47.3586,-151.2054"/>
</g>
<!-- A1 -->
<g id="node2" class="node">
<title>A1</title>
<polygon fill="none" stroke="#000000" points="196,-230 196,-262 265,-262 265,-230 196,-230"/>
<text text-anchor="start" x="218.417" y="-243" font-family="Helvetica,sans-Serif" font-size="10.00" fill="#000000">+IDry</text>
<polygon fill="none" stroke="#000000" points="196,-174 196,-230 265,-230 265,-174 196,-174"/>
<text text-anchor="start" x="208.4205" y="-211" font-family="Helvetica,sans-Serif" font-size="10.00" fill="#000000">+AirFluff()</text>
<text text-anchor="start" x="205.9195" y="-187" font-family="Helvetica,sans-Serif" font-size="10.00" fill="#000000">+HeatDry()</text>
</g>
<!-- A4 -->
<g id="node5" class="node">
<title>A4</title>
<polygon fill="none" stroke="#000000" points="140,-68 140,-100 209,-100 209,-68 140,-68"/>
<text text-anchor="start" x="152.6885" y="-81" font-family="Helvetica,sans-Serif" font-size="10.00" fill="#000000">+DryLoad</text>
<polygon fill="none" stroke="#000000" points="140,-12 140,-68 209,-68 209,-12 140,-12"/>
<text text-anchor="start" x="152.4205" y="-49" font-family="Helvetica,sans-Serif" font-size="10.00" fill="#000000">+AirFluff()</text>
<text text-anchor="start" x="149.9195" y="-25" font-family="Helvetica,sans-Serif" font-size="10.00" fill="#000000">+HeatDry()</text>
</g>
<!-- A1&#45;&gt;A4 -->
<g id="edge4" class="edge">
<title>A1&#45;&gt;A4</title>
<path fill="none" stroke="#000000" d="M211.3696,-164.1049C204.1995,-143.3628 196.1028,-119.9403 189.2837,-100.2137"/>
<polygon fill="none" stroke="#000000" points="208.1227,-165.425 214.6978,-173.7328 214.7385,-163.138 208.1227,-165.425"/>
</g>
<!-- A2 -->
<g id="node3" class="node">
<title>A2</title>
<polygon fill="none" stroke="#000000" points="79,-234 79,-266 178,-266 178,-234 79,-234"/>
<text text-anchor="start" x="114.4625" y="-247" font-family="Helvetica,sans-Serif" font-size="10.00" fill="#000000">+Load</text>
<polygon fill="none" stroke="#000000" points="79,-202 79,-234 178,-234 178,-202 79,-202"/>
<text text-anchor="start" x="88.628" y="-215" font-family="Helvetica,sans-Serif" font-size="10.00" fill="#000000">+loadname:string </text>
<polygon fill="none" stroke="#000000" points="79,-170 79,-202 178,-202 178,-170 79,-170"/>
<text text-anchor="start" x="102.2505" y="-183" font-family="Helvetica,sans-Serif" font-size="10.00" fill="#000000"> +SetTime()</text>
</g>
<!-- A2&#45;&gt;A3 -->
<g id="edge1" class="edge">
<title>A2&#45;&gt;A3</title>
<path fill="none" stroke="#000000" stroke-dasharray="5,2" d="M111.1297,-159.8513C106.6337,-144.3545 101.7851,-127.6423 97.3193,-112.2495"/>
<polygon fill="none" stroke="#000000" points="107.8779,-161.2045 114.0257,-169.8333 114.6007,-159.2541 107.8779,-161.2045"/>
</g>
<!-- A2&#45;&gt;A4 -->
<g id="edge2" class="edge">
<title>A2&#45;&gt;A4</title>
<path fill="none" stroke="#000000" stroke-dasharray="5,2" d="M144.4612,-160.0281C150.0638,-140.2969 156.2311,-118.5775 161.4747,-100.1109"/>
<polygon fill="none" stroke="#000000" points="141.0417,-159.2575 141.677,-169.8333 147.7755,-161.1696 141.0417,-159.2575"/>
</g>
</g>
</svg>
