<?xml version="1.0" encoding="UTF-8" standalone="no"?>
<!DOCTYPE svg PUBLIC "-//W3C//DTD SVG 1.1//EN"
 "http://www.w3.org/Graphics/SVG/1.1/DTD/svg11.dtd">
<!-- Generated by graphviz version 2.40.1 (20161225.0304)
 -->
<!-- Title: G Pages: 1 -->
<svg width="172pt" height="254pt"
 viewBox="0.00 0.00 171.50 254.00" xmlns="http://www.w3.org/2000/svg" xmlns:xlink="http://www.w3.org/1999/xlink">
<g id="graph0" class="graph" transform="scale(1 1) rotate(0) translate(4 250)">
<title>G</title>
<polygon fill="#ffffff" stroke="transparent" points="-4,4 -4,-250 167.5,-250 167.5,4 -4,4"/>
<!-- A0 -->
<g id="node1" class="node">
<title>A0</title>
<polygon fill="none" stroke="#000000" points="3,-214 3,-246 79,-246 79,-214 3,-214"/>
<text text-anchor="start" x="21.5585" y="-227" font-family="Helvetica,sans-Serif" font-size="10.00" fill="#000000">HotDrink</text>
<polygon fill="none" stroke="#000000" points="3,-170 3,-214 79,-214 79,-170 3,-170"/>
<text text-anchor="start" x="29.197" y="-195" font-family="Helvetica,sans-Serif" font-size="10.00" fill="#000000">+Milk</text>
<text text-anchor="start" x="24.743" y="-183" font-family="Helvetica,sans-Serif" font-size="10.00" fill="#000000">+Sugar</text>
<polygon fill="none" stroke="#000000" points="3,-114 3,-170 79,-170 79,-114 3,-114"/>
<text text-anchor="start" x="23.0885" y="-151" font-family="Helvetica,sans-Serif" font-size="10.00" fill="#000000">+Drink()</text>
<text text-anchor="start" x="16.9745" y="-139" font-family="Helvetica,sans-Serif" font-size="10.00" fill="#000000">+AddMilk()</text>
<text text-anchor="start" x="12.5205" y="-127" font-family="Helvetica,sans-Serif" font-size="10.00" fill="#000000">+AddSugar()</text>
</g>
<!-- A2 -->
<g id="node3" class="node">
<title>A2</title>
<polygon fill="none" stroke="#000000" points="0,-32 0,-64 78,-64 78,-32 0,-32"/>
<text text-anchor="start" x="9.8255" y="-45" font-family="Helvetica,sans-Serif" font-size="10.00" fill="#000000">CupOfCoffee</text>
<polygon fill="none" stroke="#000000" points="0,0 0,-32 78,-32 78,0 0,0"/>
<text text-anchor="start" x="13.294" y="-13" font-family="Helvetica,sans-Serif" font-size="10.00" fill="#000000">+BeanType</text>
</g>
<!-- A0&#45;&gt;A2 -->
<g id="edge1" class="edge">
<title>A0&#45;&gt;A2</title>
<path fill="none" stroke="#000000" stroke-dasharray="5,2" d="M39.9683,-103.6533C39.78,-89.7177 39.5932,-75.8933 39.4346,-64.1594"/>
<polygon fill="none" stroke="#000000" points="36.4704,-103.8401 40.1053,-113.7918 43.4698,-103.7454 36.4704,-103.8401"/>
</g>
<!-- A3 -->
<g id="node4" class="node">
<title>A3</title>
<polygon fill="none" stroke="#000000" points="97,-32 97,-64 164,-64 164,-32 97,-32"/>
<text text-anchor="start" x="107.439" y="-45" font-family="Helvetica,sans-Serif" font-size="10.00" fill="#000000">CupOfTea</text>
<polygon fill="none" stroke="#000000" points="97,0 97,-32 164,-32 164,0 97,0"/>
<text text-anchor="start" x="106.739" y="-13" font-family="Helvetica,sans-Serif" font-size="10.00" fill="#000000">+LeafType</text>
</g>
<!-- A0&#45;&gt;A3 -->
<g id="edge2" class="edge">
<title>A0&#45;&gt;A3</title>
<path fill="none" stroke="#000000" stroke-dasharray="5,2" d="M84.3814,-107.8601C93.5501,-92.6133 102.7821,-77.2612 110.5193,-64.3949"/>
<polygon fill="none" stroke="#000000" points="81.1562,-106.4318 79.0022,-116.8054 87.1551,-110.0393 81.1562,-106.4318"/>
</g>
<!-- A1 -->
<g id="node2" class="node">
<title>A1</title>
<polygon fill="none" stroke="#000000" points="99,-208 99,-240 158,-240 158,-208 99,-208"/>
<text text-anchor="start" x="117.942" y="-221" font-family="Helvetica,sans-Serif" font-size="10.00" fill="#000000">ICup</text>
<polygon fill="none" stroke="#000000" points="99,-164 99,-208 158,-208 158,-164 99,-164"/>
<text text-anchor="start" x="113.638" y="-189" font-family="Helvetica,sans-Serif" font-size="10.00" fill="#000000">+Color</text>
<text text-anchor="start" x="108.6335" y="-177" font-family="Helvetica,sans-Serif" font-size="10.00" fill="#000000">+Volume</text>
<polygon fill="none" stroke="#000000" points="99,-120 99,-164 158,-164 158,-120 99,-120"/>
<text text-anchor="start" x="111.1445" y="-145" font-family="Helvetica,sans-Serif" font-size="10.00" fill="#000000">+Refill()</text>
<text text-anchor="start" x="109.473" y="-133" font-family="Helvetica,sans-Serif" font-size="10.00" fill="#000000">+Wash()</text>
</g>
<!-- A1&#45;&gt;A2 -->
<g id="edge3" class="edge">
<title>A1&#45;&gt;A2</title>
<path fill="none" stroke="#000000" d="M93.194,-122.1203C81.38,-102.4747 68.608,-81.2358 58.4318,-64.3135"/>
<polygon fill="none" stroke="#000000" points="90.2113,-123.952 98.3643,-130.7181 96.2102,-120.3446 90.2113,-123.952"/>
</g>
<!-- A1&#45;&gt;A3 -->
<g id="edge4" class="edge">
<title>A1&#45;&gt;A3</title>
<path fill="none" stroke="#000000" d="M128.9535,-109.4435C129.1678,-93.5865 129.3849,-77.5181 129.5654,-64.1594"/>
<polygon fill="none" stroke="#000000" points="125.449,-109.7563 128.8135,-119.8027 132.4484,-109.851 125.449,-109.7563"/>
</g>
</g>
</svg>
