<?xml version="1.0" encoding="UTF-8" standalone="no"?>
<!DOCTYPE svg PUBLIC "-//W3C//DTD SVG 1.1//EN"
 "http://www.w3.org/Graphics/SVG/1.1/DTD/svg11.dtd">
<!-- Generated by graphviz version 2.40.1 (20161225.0304)
 -->
<!-- Title: G Pages: 1 -->
<svg width="277pt" height="454pt"
 viewBox="0.00 0.00 276.50 454.00" xmlns="http://www.w3.org/2000/svg" xmlns:xlink="http://www.w3.org/1999/xlink">
<g id="graph0" class="graph" transform="scale(1 1) rotate(0) translate(4 450)">
<title>G</title>
<polygon fill="#ffffff" stroke="transparent" points="-4,4 -4,-450 272.5,-450 272.5,4 -4,4"/>
<!-- A0 -->
<g id="node1" class="node">
<title>A0</title>
<polygon fill="none" stroke="#000000" points="31,-324 31,-356 102,-356 102,-324 31,-324"/>
<text text-anchor="start" x="40.5245" y="-337" font-family="Helvetica,sans-Serif" font-size="10.00" fill="#000000">+ICustomer</text>
<polygon fill="none" stroke="#000000" points="31,-292 31,-324 102,-324 102,-292 31,-292"/>
<text text-anchor="start" x="47.749" y="-305" font-family="Helvetica,sans-Serif" font-size="10.00" fill="#000000">+Greet()</text>
</g>
<!-- A1 -->
<g id="node2" class="node">
<title>A1</title>
<polygon fill="none" stroke="#000000" points="0,-110 0,-142 132,-142 132,-110 0,-110"/>
<text text-anchor="start" x="41.414" y="-123" font-family="Helvetica,sans-Serif" font-size="10.00" fill="#000000">+Customer</text>
<polygon fill="none" stroke="#000000" points="0,-66 0,-110 132,-110 132,-66 0,-66"/>
<text text-anchor="start" x="36.9655" y="-91" font-family="Helvetica,sans-Serif" font-size="10.00" fill="#000000">+name:string</text>
<text text-anchor="start" x="9.891" y="-79" font-family="Helvetica,sans-Serif" font-size="10.00" fill="#000000">&#45;creditCardNumber:string</text>
<polygon fill="none" stroke="#000000" points="0,-10 0,-66 132,-66 132,-10 0,-10"/>
<text text-anchor="start" x="21.1385" y="-47" font-family="Helvetica,sans-Serif" font-size="10.00" fill="#000000">+CreditCardNumber</text>
<text text-anchor="start" x="47.249" y="-23" font-family="Helvetica,sans-Serif" font-size="10.00" fill="#000000">+Greet()</text>
</g>
<!-- A0&#45;&gt;A1 -->
<g id="edge1" class="edge">
<title>A0&#45;&gt;A1</title>
<path fill="none" stroke="#000000" d="M66,-281.5552C66,-243.2728 66,-186.3552 66,-142.1133"/>
<polygon fill="none" stroke="#000000" points="62.5001,-281.8325 66,-291.8326 69.5001,-281.8326 62.5001,-281.8325"/>
</g>
<!-- A2 -->
<g id="node3" class="node">
<title>A2</title>
<polygon fill="none" stroke="#000000" points="130,-414 130,-446 269,-446 269,-414 130,-414"/>
<text text-anchor="start" x="172.415" y="-427" font-family="Helvetica,sans-Serif" font-size="10.00" fill="#000000">+A:HotDrink</text>
<polygon fill="none" stroke="#000000" points="130,-322 130,-414 269,-414 269,-322 130,-322"/>
<text text-anchor="start" x="162.6775" y="-395" font-family="Helvetica,sans-Serif" font-size="10.00" fill="#000000">+instant:boolean</text>
<text text-anchor="start" x="168.521" y="-383" font-family="Helvetica,sans-Serif" font-size="10.00" fill="#000000">+milk:boolean</text>
<text text-anchor="start" x="174.4945" y="-371" font-family="Helvetica,sans-Serif" font-size="10.00" fill="#000000">&#45;sugar:byte</text>
<text text-anchor="start" x="170.186" y="-359" font-family="Helvetica,sans-Serif" font-size="10.00" fill="#000000">+brand:string</text>
<text text-anchor="start" x="174.0795" y="-347" font-family="Helvetica,sans-Serif" font-size="10.00" fill="#000000">+size:string</text>
<text text-anchor="start" x="154.2225" y="-335" font-family="Helvetica,sans-Serif" font-size="10.00" fill="#000000">&#45;customer:Customer</text>
<polygon fill="none" stroke="#000000" points="130,-278 130,-322 269,-322 269,-278 130,-278"/>
<text text-anchor="start" x="139.621" y="-303" font-family="Helvetica,sans-Serif" font-size="10.00" fill="#000000">+AddSugar(amount:byte):v</text>
<text text-anchor="start" x="177.4145" y="-291" font-family="Helvetica,sans-Serif" font-size="10.00" fill="#000000">+Steam() </text>
<polygon fill="none" stroke="#000000" points="130,-234 130,-278 269,-278 269,-234 130,-234"/>
<text text-anchor="start" x="194.7815" y="-259" font-family="Helvetica,sans-Serif" font-size="10.00" fill="#000000"> ()</text>
<text text-anchor="start" x="198.1105" y="-247" font-family="Helvetica,sans-Serif" font-size="10.00" fill="#000000"> </text>
<polygon fill="none" stroke="#000000" points="130,-202 130,-234 269,-234 269,-202 130,-202"/>
<text text-anchor="start" x="168.387" y="-215" font-family="Helvetica,sans-Serif" font-size="10.00" fill="#000000"> (brand:string)</text>
</g>
<!-- A3 -->
<g id="node4" class="node">
<title>A3</title>
<polygon fill="none" stroke="#000000" points="151,-120 151,-152 248,-152 248,-120 151,-120"/>
<text text-anchor="start" x="167.406" y="-133" font-family="Helvetica,sans-Serif" font-size="10.00" fill="#000000">+CupOfCoffee</text>
<polygon fill="none" stroke="#000000" points="151,-64 151,-120 248,-120 248,-64 151,-64"/>
<text text-anchor="start" x="160.737" y="-101" font-family="Helvetica,sans-Serif" font-size="10.00" fill="#000000">+beanType:string</text>
<text text-anchor="start" x="178.804" y="-77" font-family="Helvetica,sans-Serif" font-size="10.00" fill="#000000">+Steam()</text>
<polygon fill="none" stroke="#000000" points="151,-32 151,-64 248,-64 248,-32 151,-32"/>
<text text-anchor="start" x="193.392" y="-45" font-family="Helvetica,sans-Serif" font-size="10.00" fill="#000000"> () </text>
<polygon fill="none" stroke="#000000" points="151,0 151,-32 248,-32 248,0 151,0"/>
<text text-anchor="start" x="165.608" y="-13" font-family="Helvetica,sans-Serif" font-size="10.00" fill="#000000"> (brand : string)</text>
</g>
<!-- A2&#45;&gt;A3 -->
<g id="edge2" class="edge">
<title>A2&#45;&gt;A3</title>
<path fill="none" stroke="#000000" stroke-dasharray="5,2" d="M199,-191.5396C199,-178.1209 199,-164.8349 199,-152.3142"/>
<polygon fill="none" stroke="#000000" points="195.5001,-191.8163 199,-201.8163 202.5001,-191.8164 195.5001,-191.8163"/>
</g>
</g>
</svg>
