<?xml version="1.0" encoding="UTF-8" standalone="no"?>
<!DOCTYPE svg PUBLIC "-//W3C//DTD SVG 1.1//EN"
 "http://www.w3.org/Graphics/SVG/1.1/DTD/svg11.dtd">
<!-- Generated by graphviz version 2.40.1 (20161225.0304)
 -->
<!-- Title: G Pages: 1 -->
<svg width="106pt" height="282pt"
 viewBox="0.00 0.00 106.00 282.00" xmlns="http://www.w3.org/2000/svg" xmlns:xlink="http://www.w3.org/1999/xlink">
<g id="graph0" class="graph" transform="scale(1 1) rotate(0) translate(4 278)">
<title>G</title>
<polygon fill="#ffffff" stroke="transparent" points="-4,4 -4,-278 102,-278 102,4 -4,4"/>
<!-- A0 -->
<g id="node1" class="node">
<title>A0</title>
<polygon fill="none" stroke="#000000" points="0,-242 0,-274 98,-274 98,-242 0,-242"/>
<text text-anchor="start" x="29.837" y="-255" font-family="Helvetica,sans-Serif" font-size="10.00" fill="#000000">MyClass</text>
<polygon fill="none" stroke="#000000" points="0,-210 0,-242 98,-242 98,-210 0,-210"/>
<text text-anchor="start" x="14.277" y="-223" font-family="Helvetica,sans-Serif" font-size="10.00" fill="#000000">myString: string</text>
<polygon fill="none" stroke="#000000" points="0,-178 0,-210 98,-210 98,-178 0,-178"/>
<text text-anchor="start" x="9.554" y="-191" font-family="Helvetica,sans-Serif" font-size="10.00" fill="#000000">GetString(): string</text>
<polygon fill="none" stroke="#000000" points="0,-146 0,-178 98,-178 98,-146 0,-146"/>
<text text-anchor="start" x="14.277" y="-159" font-family="Helvetica,sans-Serif" font-size="10.00" fill="#000000">MyString: string</text>
</g>
<!-- A1 -->
<g id="node2" class="node">
<title>A1</title>
<polygon fill="none" stroke="#000000" points="0,-64 0,-96 98,-96 98,-64 0,-64"/>
<text text-anchor="start" x="12.615" y="-77" font-family="Helvetica,sans-Serif" font-size="10.00" fill="#000000">MyDerivedClass</text>
<polygon fill="none" stroke="#000000" points="0,-32 0,-64 98,-64 98,-32 0,-32"/>
<text text-anchor="start" x="47.3355" y="-45" font-family="Helvetica,sans-Serif" font-size="10.00" fill="#000000">&#45;</text>
<polygon fill="none" stroke="#000000" points="0,0 0,-32 98,-32 98,0 0,0"/>
<text text-anchor="start" x="9.554" y="-13" font-family="Helvetica,sans-Serif" font-size="10.00" fill="#000000">GetString(): string</text>
</g>
<!-- A0&#45;&gt;A1 -->
<g id="edge1" class="edge">
<title>A0&#45;&gt;A1</title>
<path fill="none" stroke="#000000" d="M49,-135.7426C49,-122.2674 49,-108.5417 49,-96.0709"/>
<polygon fill="none" stroke="#000000" points="45.5001,-135.9733 49,-145.9733 52.5001,-135.9733 45.5001,-135.9733"/>
</g>
</g>
</svg>
