<?xml version="1.0" encoding="UTF-8" standalone="no"?>
<!DOCTYPE svg PUBLIC "-//W3C//DTD SVG 1.1//EN"
 "http://www.w3.org/Graphics/SVG/1.1/DTD/svg11.dtd">
<!-- Generated by graphviz version 2.40.1 (20161225.0304)
 -->
<!-- Title: G Pages: 1 -->
<svg width="340pt" height="290pt"
 viewBox="0.00 0.00 339.50 290.00" xmlns="http://www.w3.org/2000/svg" xmlns:xlink="http://www.w3.org/1999/xlink">
<g id="graph0" class="graph" transform="scale(1 1) rotate(0) translate(4 286)">
<title>G</title>
<polygon fill="#ffffff" stroke="transparent" points="-4,4 -4,-286 335.5,-286 335.5,4 -4,4"/>
<!-- A0 -->
<g id="node1" class="node">
<title>A0</title>
<polygon fill="none" stroke="#000000" points="102,-250 102,-282 217,-282 217,-250 102,-250"/>
<text text-anchor="start" x="133.525" y="-263" font-family="Helvetica,sans-Serif" font-size="10.00" fill="#000000">+A:Drawing</text>
<polygon fill="none" stroke="#000000" points="102,-194 102,-250 217,-250 217,-194 102,-194"/>
<text text-anchor="start" x="121.022" y="-231" font-family="Helvetica,sans-Serif" font-size="10.00" fill="#000000">+drawType:string</text>
<text text-anchor="start" x="132.1355" y="-219" font-family="Helvetica,sans-Serif" font-size="10.00" fill="#000000">+color:string</text>
<text text-anchor="start" x="158.1105" y="-207" font-family="Helvetica,sans-Serif" font-size="10.00" fill="#000000"> </text>
<polygon fill="none" stroke="#000000" points="102,-150 102,-194 217,-194 217,-150 102,-150"/>
<text text-anchor="start" x="120.748" y="-175" font-family="Helvetica,sans-Serif" font-size="10.00" fill="#000000">+GetMaterials():a</text>
<text text-anchor="start" x="111.5845" y="-163" font-family="Helvetica,sans-Serif" font-size="10.00" fill="#000000">+SetDrawingColor():v</text>
</g>
<!-- A3 -->
<g id="node4" class="node">
<title>A3</title>
<polygon fill="none" stroke="#000000" points="42,-68 42,-100 158,-100 158,-68 42,-68"/>
<text text-anchor="start" x="83.194" y="-81" font-family="Helvetica,sans-Serif" font-size="10.00" fill="#000000">+Digital</text>
<polygon fill="none" stroke="#000000" points="42,0 42,-68 158,-68 158,0 42,0"/>
<text text-anchor="start" x="67.641" y="-49" font-family="Helvetica,sans-Serif" font-size="10.00" fill="#000000">+DrawStroke()</text>
<text text-anchor="start" x="81.8035" y="-37" font-family="Helvetica,sans-Serif" font-size="10.00" fill="#000000">+Undo()</text>
<text text-anchor="start" x="61.248" y="-25" font-family="Helvetica,sans-Serif" font-size="10.00" fill="#000000">+GetMaterials():o</text>
<text text-anchor="start" x="51.805" y="-13" font-family="Helvetica,sans-Serif" font-size="10.00" fill="#000000">+SetDrawingColor():o</text>
</g>
<!-- A0&#45;&gt;A3 -->
<g id="edge1" class="edge">
<title>A0&#45;&gt;A3</title>
<path fill="none" stroke="#000000" stroke-dasharray="5,2" d="M132.0356,-140.1342C127.2292,-126.611 122.3324,-112.8334 117.8605,-100.2516"/>
<polygon fill="#000000" stroke="#000000" points="135.5121,-149.9154 127.9229,-141.9999 133.8376,-145.2042 132.1631,-140.4929 132.1631,-140.4929 132.1631,-140.4929 133.8376,-145.2042 136.4032,-138.9858 135.5121,-149.9154 135.5121,-149.9154"/>
</g>
<!-- A4 -->
<g id="node5" class="node">
<title>A4</title>
<polygon fill="none" stroke="#000000" points="206,-62 206,-94 303,-94 303,-62 206,-62"/>
<text text-anchor="start" x="237.968" y="-75" font-family="Helvetica,sans-Serif" font-size="10.00" fill="#000000">+Pencil</text>
<polygon fill="none" stroke="#000000" points="206,-6 206,-62 303,-62 303,-6 206,-6"/>
<text text-anchor="start" x="215.7425" y="-43" font-family="Helvetica,sans-Serif" font-size="10.00" fill="#000000">+SharpenPencil()</text>
<text text-anchor="start" x="224.64" y="-31" font-family="Helvetica,sans-Serif" font-size="10.00" fill="#000000">+UseEraser()</text>
<text text-anchor="start" x="215.748" y="-19" font-family="Helvetica,sans-Serif" font-size="10.00" fill="#000000">+GetMaterials():o</text>
</g>
<!-- A0&#45;&gt;A4 -->
<g id="edge2" class="edge">
<title>A0&#45;&gt;A4</title>
<path fill="none" stroke="#000000" stroke-dasharray="5,2" d="M201.857,-141.113C210.9829,-125.1668 220.3395,-108.8172 228.5622,-94.4492"/>
<polygon fill="#000000" stroke="#000000" points="196.8195,-149.9154 197.8809,-139.001 199.303,-145.5758 201.7866,-141.2362 201.7866,-141.2362 201.7866,-141.2362 199.303,-145.5758 205.6922,-143.4714 196.8195,-149.9154 196.8195,-149.9154"/>
</g>
<!-- A1 -->
<g id="node2" class="node">
<title>A1</title>
<polygon fill="none" stroke="#000000" points="0,-222 0,-254 84,-254 84,-222 0,-222"/>
<text text-anchor="start" x="23.8045" y="-235" font-family="Helvetica,sans-Serif" font-size="10.00" fill="#000000">+IDigital</text>
<polygon fill="none" stroke="#000000" points="0,-178 0,-222 84,-222 84,-178 0,-178"/>
<text text-anchor="start" x="9.641" y="-203" font-family="Helvetica,sans-Serif" font-size="10.00" fill="#000000">+DrawStroke()</text>
<text text-anchor="start" x="23.8035" y="-191" font-family="Helvetica,sans-Serif" font-size="10.00" fill="#000000">+Undo()</text>
</g>
<!-- A1&#45;&gt;A3 -->
<g id="edge3" class="edge">
<title>A1&#45;&gt;A3</title>
<path fill="none" stroke="#000000" d="M58.631,-168.4009C66.0932,-147.0437 74.8999,-121.8383 82.4656,-100.1846"/>
<polygon fill="none" stroke="#000000" points="55.3007,-167.3214 55.3064,-177.9162 61.909,-169.6304 55.3007,-167.3214"/>
</g>
<!-- A2 -->
<g id="node3" class="node">
<title>A2</title>
<polygon fill="none" stroke="#000000" points="235,-222 235,-254 332,-254 332,-222 235,-222"/>
<text text-anchor="start" x="265.5785" y="-235" font-family="Helvetica,sans-Serif" font-size="10.00" fill="#000000">+IPencil</text>
<polygon fill="none" stroke="#000000" points="235,-178 235,-222 332,-222 332,-178 235,-178"/>
<text text-anchor="start" x="244.7425" y="-203" font-family="Helvetica,sans-Serif" font-size="10.00" fill="#000000">+SharpenPencil()</text>
<text text-anchor="start" x="253.64" y="-191" font-family="Helvetica,sans-Serif" font-size="10.00" fill="#000000">+UseEraser()</text>
</g>
<!-- A2&#45;&gt;A4 -->
<g id="edge4" class="edge">
<title>A2&#45;&gt;A4</title>
<path fill="none" stroke="#000000" d="M274.5967,-167.8984C270.5264,-144.5996 265.6725,-116.8151 261.6993,-94.0721"/>
<polygon fill="none" stroke="#000000" points="271.178,-168.6678 276.3468,-177.9162 278.0736,-167.4631 271.178,-168.6678"/>
</g>
</g>
</svg>
